#!OML:ASF F:\VICON\USERDATA\INSTALL\rory3\rory3.ASF
:FULLY-SPECIFIED
:DEGREES
100
root 1.17399 18.1689 18.6643 1.13822 6.40062 -4.22169
lowerback 12.4613 2.05138 7.68763
upperback -1.90735 4.01337 0.824928
thorax -8.60678 1.58091 -4.21897
lowerneck -20.8282 -7.0261 -1.96784
upperneck 10.6871 -9.70343 5.02782
head 6.98645 -4.27499 0.787494
rclavicle 4.13224e-014 3.61788e-014
rhumerus -32.9257 18.0754 -97.0044
rradius 124.515
rwrist -16.0169
rhand -10.6628 36.6749
rfingers 7.12502
rthumb 15.3453 7.2643
lclavicle 4.13224e-014 3.61788e-014
lhumerus -70.7838 -3.91695 94.7512
lradius 113.327
lwrist 24.6575
lhand -29.269 -1.98179
lfingers 7.12502
lthumb -2.61153 27.982
rfemur 18.2979 8.0809 36.0122
rtibia 46.4625
rfoot 13.8483 -12.2965
rtoes 12.7896
lfemur -33.377 3.05137 -19.3302
ltibia 30.5084
lfoot -3.79734 -16.7194
ltoes -16.6295
101
root 1.19677 18.1224 19.1567 1.11975 6.38285 -3.89345
lowerback 12.7555 2.01906 7.34008
upperback -1.82649 3.93058 0.742633
thorax -8.7123 1.55237 -4.11301
lowerneck -20.5021 -6.94868 -1.88112
upperneck 9.97301 -9.58214 5.03465
head 6.69249 -4.23733 0.81374
rclavicle 4.21548e-014 2.64384e-014
rhumerus -33.335 18.1958 -97.2486
rradius 123.281
rwrist -15.6329
rhand -9.9533 37.9334
rfingers 7.12502
rthumb 16.0286 8.57642
lclavicle 4.21548e-014 2.64384e-014
lhumerus -70.1112 -3.77709 94.9181
lradius 113.477
lwrist 24.6796
lhand -29.2605 -2.25946
lfingers 7.12502
lthumb -2.60325 27.7044
rfemur 16.7964 8.19481 35.5605
rtibia 51.1124
rfoot 13.2626 -12.4439
rtoes 9.51372
lfemur -32.8789 3.30727 -19.9218
ltibia 29.8236
lfoot -3.41896 -16.4571
ltoes -17.5299
102
root 1.20799 18.0614 19.6398 1.04126 6.43331 -3.91516
lowerback 13.5359 1.93378 7.2001
upperback -1.95904 3.87531 0.779851
thorax -9.32704 1.50071 -4.03368
lowerneck -20.1966 -6.92836 -1.92046
upperneck 9.44188 -9.53136 5.14456
head 6.47722 -4.22394 0.879012
rclavicle 1.48343e-014 4.17448e-015
rhumerus -34.0954 18.2572 -97.6393
rradius 121.936
rwrist -15.3817
rhand -10.2792 37.4253
rfingers 7.12502
rthumb 15.7148 8.04339
lclavicle 1.48343e-014 4.17448e-015
lhumerus -69.6198 -3.82501 95.1643
lradius 113.747
lwrist 24.8861
lhand -28.9509 -2.29767
lfingers 7.12502
lthumb -2.30425 27.6696
rfemur 15.0354 8.20141 35.5173
rtibia 56.0337
rfoot 13.3665 -12.3912
rtoes 9.54562
lfemur -32.5523 3.85948 -20.2064
ltibia 29.6617
lfoot -2.86427 -16.4507
ltoes -18.7755
103
root 1.20127 17.9905 20.1267 0.506842 6.36086 -3.91439
lowerback 14.7659 1.91985 6.88962
upperback -1.99442 3.90937 0.760537
thorax -10.0922 1.49462 -3.95973
lowerneck -20.0175 -6.89252 -1.93394
upperneck 9.23878 -9.50586 5.38776
head 6.39669 -4.19941 0.969687
rclavicle -8.01351e-015 5.96354e-016
rhumerus -34.8385 18.0538 -98.1566
rradius 120.41
rwrist -15.322
rhand -10.8975 36.1994
rfingers 7.12502
rthumb 15.1192 6.77163
lclavicle -8.01351e-015 5.96354e-016
lhumerus -69.0096 -4.28147 95.3505
lradius 113.953
lwrist 25.259
lhand -29.1573 -2.26617
lfingers 7.12502
lthumb -2.50365 27.6989
rfemur 13.5855 8.11012 35.5268
rtibia 61.0907
rfoot 13.4248 -12.3243
rtoes 10.0842
lfemur -31.7325 4.55581 -20.3808
ltibia 29.9119
lfoot -2.11379 -16.7387
ltoes -19.1691
104
root 1.18887 17.9079 20.613 -0.00869469 6.26597 -3.79333
lowerback 15.5632 1.93023 6.28551
upperback -1.74335 3.86717 0.823718
thorax -10.3186 1.50474 -3.5805
lowerneck -20.142 -6.76248 -1.92673
upperneck 9.03133 -9.33762 5.52211
head 6.35084 -4.10877 1.03119
rclavicle -5.61318e-014 7.95139e-016
rhumerus -35.4986 17.6806 -98.5393
rradius 118.876
rwrist -14.8339
rhand -10.9442 36.7159
rfingers 7.12502
rthumb 15.0742 7.28477
lclavicle -5.61318e-014 7.95139e-016
lhumerus -67.7177 -4.67194 95.6745
lradius 113.983
lwrist 25.3591
lhand -29.256 -1.51983
lfingers 7.12502
lthumb -2.59894 28.4441
rfemur 11.9183 7.87188 35.2969
rtibia 66.1884
rfoot 13.5281 -12.0259
rtoes 7.62614
lfemur -30.9318 5.19186 -20.5736
ltibia 30.553
lfoot -1.64436 -17.3084
ltoes -18.1229
105
root 1.18425 17.8159 21.1049 -0.412732 6.32621 -3.18555
lowerback 16.0054 1.9662 5.24628
upperback -1.37083 3.72582 0.814249
thorax -10.2317 1.5056 -2.98781
lowerneck -20.2898 -6.66902 -2.01625
upperneck 8.77759 -9.18101 5.59988
head 6.29486 -4.03285 1.08838
rclavicle 3.3607e-014 -4.77083e-015
rhumerus -36.269 17.2297 -98.7402
rradius 117.425
rwrist -14.0445
rhand -11.4575 36.8052
rfingers 7.12502
rthumb 14.5798 7.33762
lclavicle 3.3607e-014 -4.77083e-015
lhumerus -66.1845 -5.25409 96.1868
lradius 113.981
lwrist 25.4298
lhand -29.262 -0.952748
lfingers 7.12502
lthumb -2.60478 29.0111
rfemur 10.0833 7.21527 34.2644
rtibia 71.2328
rfoot 13.6894 -11.1831
rtoes 1.05601
lfemur -30.1078 5.46727 -21.1637
ltibia 31.5759
lfoot -2.23249 -18.2984
ltoes -12.4326
106
root 1.1918 17.7154 21.6174 -0.689045 6.59373 -2.43801
lowerback 16.0244 1.9473 4.2276
upperback -0.963815 3.47809 0.728976
thorax -9.86151 1.45901 -2.43907
lowerneck -20.3183 -6.62023 -2.17046
upperneck 8.46203 -9.078 5.76812
head 6.20962 -3.98122 1.18179
rclavicle 5.71879e-014 2.14687e-014
rhumerus -36.7113 16.8859 -98.8036
rradius 115.719
rwrist -13.6717
rhand -12.1793 36.3665
rfingers 7.12502
rthumb 13.8842 6.84994
lclavicle 5.71879e-014 2.14687e-014
lhumerus -64.5567 -6.00161 96.7337
lradius 114.031
lwrist 25.525
lhand -30.1723 -0.653063
lfingers 7.12502
lthumb -3.48386 29.2982
rfemur 8.26325 6.03393 32.6159
rtibia 76.13
rfoot 13.2063 -10.2357
rtoes 14.2024
lfemur -29.417 5.32289 -21.8003
ltibia 33.1371
lfoot -4.85333 -19.7766
ltoes -5.04207
107
root 1.20438 17.6076 22.1251 -0.892028 6.98779 -1.88212
lowerback 15.9966 1.84641 3.58317
upperback -0.588166 3.18876 0.555495
thorax -9.47264 1.36476 -2.18495
lowerneck -20.1017 -6.62829 -2.15185
upperneck 7.85225 -9.09063 6.01061
head 5.9922 -3.98603 1.26901
rclavicle -1.33931e-014 -7.35503e-015
rhumerus -36.9921 16.1741 -98.9083
rradius 113.799
rwrist -13.7192
rhand -11.9961 35.9569
rfingers 7.12502
rthumb 14.0608 6.45256
lclavicle -1.33931e-014 -7.35503e-015
lhumerus -62.9336 -6.98954 97.1853
lradius 114.225
lwrist 25.6264
lhand -30.5325 -0.658919
lfingers 7.12502
lthumb -3.83168 29.2864
rfemur 6.2607 4.63372 30.9477
rtibia 80.9127
rfoot 12.373 -9.79373
rtoes 20.5962
lfemur -28.8724 4.66898 -22.1032
ltibia 35.3635
lfoot -5.62158 -20.0547
ltoes 5.84368
108
root 1.17971 17.464 22.5399 -1.40739 8.76825 -1.65717
lowerback 17.4513 1.15001 3.20317
upperback -0.468057 2.24227 0.500478
thorax -10.2347 0.911777 -1.85347
lowerneck -20.0558 -6.5934 -2.05018
upperneck 7.71056 -9.07727 6.12349
head 5.94095 -3.9718 1.29379
rclavicle -6.4605e-015 5.1684e-015
rhumerus -37.4302 15.518 -99.2004
rradius 111.762
rwrist -13.9615
rhand -11.7995 35.3458
rfingers 7.12502
rthumb 14.2502 5.85469
lclavicle -6.4605e-015 5.1684e-015
lhumerus -61.2846 -7.94156 97.5013
lradius 114.499
lwrist 25.8898
lhand -29.8871 -1.04246
lfingers 7.12502
lthumb -3.20846 28.9131
rfemur 3.78515 1.78759 29.6732
rtibia 85.8233
rfoot 11.545 -10.2031
rtoes 17.7263
lfemur -28.4038 2.77094 -22.1901
ltibia 37.9532
lfoot -8.35827 -19.586
ltoes 6.68648
109
root 1.18755 17.347 23.02 -1.48549 8.15633 -1.52404
lowerback 17.7073 1.23669 2.73939
upperback -0.296313 2.26152 0.460109
thorax -10.2035 0.945856 -1.64463
lowerneck -20.4098 -6.52397 -2.00239
upperneck 8.03009 -9.02534 6.19858
head 6.09971 -3.92284 1.30237
rclavicle -1.0312e-014 -1.05356e-014
rhumerus -37.9653 14.876 -99.5101
rradius 109.591
rwrist -14.2896
rhand -11.1659 36.4868
rfingers 7.12502
rthumb 14.8607 7.0398
lclavicle -1.0312e-014 -1.05356e-014
lhumerus -59.4684 -8.85651 97.7502
lradius 114.704
lwrist 26.3672
lhand -29.7185 -1.34244
lfingers 7.12502
lthumb -3.04561 28.6156
rfemur 1.19218 1.31517 28.6419
rtibia 90.4163
rfoot 11.3783 -10.5345
rtoes 19.7526
lfemur -27.881 3.09018 -22.241
ltibia 40.7315
lfoot -12.7012 -17.92
ltoes 1.40727
110
root 1.21127 17.2897 23.5203 -1.25645 8.21804 -0.720054
lowerback 17.7205 1.08875 1.84748
upperback -0.297303 1.85294 0.200998
thorax -10.2481 0.789809 -1.31583
lowerneck -20.2943 -6.34627 -1.85139
upperneck 8.02458 -8.83615 6.25462
head 6.06926 -3.82486 1.322
rclavicle -3.63403e-014 -6.4605e-015
rhumerus -38.6983 14.2687 -99.8807
rradius 107.321
rwrist -14.9686
rhand -9.40671 38.9015
rfingers 7.12502
rthumb 16.5549 9.58766
lclavicle -3.63403e-014 -6.4605e-015
lhumerus -57.8352 -9.71544 97.9314
lradius 115.038
lwrist 27.0754
lhand -29.4498 -1.18764
lfingers 7.12502
lthumb -2.78614 28.7739
rfemur -1.46428 0.0180646 26.3995
rtibia 94.4399
rfoot 11.2653 -10.3074
rtoes 20.4061
lfemur -27.3092 2.49778 -23.1037
ltibia 43.1958
lfoot -14.9571 -15.5876
ltoes 3.93547
111
root 1.23973 17.2071 24.0132 -0.918848 8.62776 0.629729
lowerback 17.7252 0.890614 0.616437
upperback -0.369483 1.2869 -0.25066
thorax -10.3648 0.570606 -0.962677
lowerneck -20.0022 -6.24545 -1.92319
upperneck 7.93259 -8.72803 6.6027
head 6.01157 -3.75534 1.4638
rclavicle -8.13775e-015 1.2921e-015
rhumerus -39.6823 13.6048 -100.37
rradius 105.267
rwrist -14.839
rhand -12.7713 36.1477
rfingers 7.12502
rthumb 13.3137 6.59295
lclavicle -8.13775e-015 1.2921e-015
lhumerus -56.1966 -10.9062 98.1429
lradius 115.438
lwrist 28.0738
lhand -29.3202 -0.532082
lfingers 7.12502
lthumb -2.66097 29.4311
rfemur -4.16962 -1.75828 23.3286
rtibia 98.297
rfoot 10.8965 -9.5538
rtoes 23.6791
lfemur -26.6536 1.43281 -24.7399
ltibia 45.2772
lfoot -16.7095 -12.3494
ltoes 4.4135
112
root 1.26174 17.1311 24.493 -0.698235 8.58566 1.46492
lowerback 17.7097 0.859007 -0.12141
upperback -0.23223 1.05609 -0.588239
thorax -10.2145 0.490983 -0.848727
lowerneck -20.3706 -6.29684 -2.17887
upperneck 8.14089 -8.82134 7.15873
head 6.18255 -3.74747 1.65701
rclavicle 3.35449e-014 -6.65929e-015
rhumerus -40.7758 12.3356 -100.689
rradius 103.803
rwrist -14.3146
rhand -12.1936 33.7808
rfingers 7.12502
rthumb 13.8704 4.2633
lclavicle 3.35449e-014 -6.65929e-015
lhumerus -53.8936 -12.4328 98.2214
lradius 115.783
lwrist 29.038
lhand -28.5392 0.194487
lfingers 7.12502
lthumb -1.90672 30.1657
rfemur -7.12598 -3.08631 21.0258
rtibia 101.909
rfoot 11.0817 -8.62191
rtoes 24.9791
lfemur -25.6284 0.844128 -25.8491
ltibia 46.6715
lfoot -18.8539 -9.12626
ltoes -1.07149
